<?xml version="1.0" standalone="no"?>
<!DOCTYPE svg PUBLIC "-//W3C//DTD SVG 20010904//EN"
 "http://www.w3.org/TR/2001/REC-SVG-20010904/DTD/svg10.dtd">
<svg version="1.0" xmlns="http://www.w3.org/2000/svg"
 width="240.000000pt" height="240.000000pt" viewBox="0 0 240.000000 240.000000"
 preserveAspectRatio="xMidYMid meet">
<metadata>
Created by potrace 1.11, written by Peter Selinger 2001-2013
</metadata>
<g transform="translate(0.000000,240.000000) scale(0.100000,-0.100000)"
fill="#000000" stroke="none">
<path d="M0 1200 l0 -1200 1200 0 1200 0 0 1200 0 1200 -1200 0 -1200 0 0
-1200z m1885 620 c113 -44 205 -164 205 -267 l0 -33 -54 0 -53 0 -6 42 c-7 49
-49 114 -97 146 -130 87 -357 57 -417 -57 -45 -85 -22 -186 50 -224 20 -10
121 -40 225 -67 205 -52 268 -78 324 -137 92 -95 90 -251 -4 -358 -72 -81
-170 -116 -331 -116 -266 -1 -405 102 -432 319 l-7 52 60 0 60 0 4 -59 c10
-145 143 -230 344 -219 149 8 253 83 261 190 9 120 -53 164 -323 232 -102 26
-207 57 -234 71 -84 43 -130 119 -130 216 0 130 79 233 213 281 76 27 258 21
342 -12z m-1042 -5 c176 -37 291 -152 333 -331 20 -88 20 -280 0 -368 -41
-176 -148 -286 -321 -331 -45 -11 -116 -15 -292 -15 l-233 0 0 523 c0 288 3
527 7 530 13 14 436 7 506 -8z"/>
<path d="M440 1301 l0 -441 138 0 c172 0 250 12 330 51 46 23 73 44 95 76 58
81 70 125 75 271 5 150 -7 232 -44 302 -30 56 -40 69 -86 104 -67 50 -144 67
-335 73 l-173 6 0 -442z"/>
</g>
</svg>
